<mxfile host="65bd71144e">
    <diagram id="fV45Wr1WfIK8YMZv6FQD" name="Page-1">
        <mxGraphModel dx="2741" dy="2407" grid="1" gridSize="10" guides="1" tooltips="1" connect="1" arrows="1" fold="1" page="1" pageScale="1" pageWidth="850" pageHeight="1100" math="0" shadow="0">
            <root>
                <mxCell id="0"/>
                <mxCell id="1" parent="0"/>
                <mxCell id="50" style="edgeStyle=none;html=1;exitX=0.5;exitY=1;exitDx=0;exitDy=0;entryX=0.25;entryY=0;entryDx=0;entryDy=0;strokeWidth=1;endArrow=diamond;endFill=0;" parent="1" source="2" target="40" edge="1">
                    <mxGeometry relative="1" as="geometry">
                        <Array as="points">
                            <mxPoint x="245" y="-420"/>
                            <mxPoint x="394" y="-420"/>
                        </Array>
                    </mxGeometry>
                </mxCell>
                <mxCell id="2" value="Store" style="swimlane;fontStyle=2;align=center;verticalAlign=top;childLayout=stackLayout;horizontal=1;startSize=26;horizontalStack=0;resizeParent=1;resizeLast=0;collapsible=1;marginBottom=0;rounded=0;shadow=0;strokeWidth=1;" parent="1" vertex="1">
                    <mxGeometry x="60" y="-640" width="370" height="140" as="geometry">
                        <mxRectangle x="230" y="140" width="160" height="26" as="alternateBounds"/>
                    </mxGeometry>
                </mxCell>
                <mxCell id="3" value="+  double COMMISSION_RATE = 0.10" style="text;align=left;verticalAlign=top;spacingLeft=4;spacingRight=4;overflow=hidden;rotatable=0;points=[[0,0.5],[1,0.5]];portConstraint=eastwest;fontStyle=4" parent="2" vertex="1">
                    <mxGeometry y="26" width="370" height="26" as="geometry"/>
                </mxCell>
                <mxCell id="4" value="+ double TAX = 0.14" style="text;align=left;verticalAlign=top;spacingLeft=4;spacingRight=4;overflow=hidden;rotatable=0;points=[[0,0.5],[1,0.5]];portConstraint=eastwest;rounded=0;shadow=0;html=0;fontStyle=4" parent="2" vertex="1">
                    <mxGeometry y="52" width="370" height="26" as="geometry"/>
                </mxCell>
                <mxCell id="6" value="" style="line;html=1;strokeWidth=1;align=left;verticalAlign=middle;spacingTop=-1;spacingLeft=3;spacingRight=3;rotatable=0;labelPosition=right;points=[];portConstraint=eastwest;" parent="2" vertex="1">
                    <mxGeometry y="78" width="370" height="8" as="geometry"/>
                </mxCell>
                <mxCell id="7" value="+ double calculateComission()" style="text;align=left;verticalAlign=top;spacingLeft=4;spacingRight=4;overflow=hidden;rotatable=0;points=[[0,0.5],[1,0.5]];portConstraint=eastwest;fontStyle=2" parent="2" vertex="1">
                    <mxGeometry y="86" width="370" height="26" as="geometry"/>
                </mxCell>
                <mxCell id="39" value="+ double calculateRemainingStoreRevenue(storeSales : double)" style="text;align=left;verticalAlign=top;spacingLeft=4;spacingRight=4;overflow=hidden;rotatable=0;points=[[0,0.5],[1,0.5]];portConstraint=eastwest;fontStyle=2" parent="2" vertex="1">
                    <mxGeometry y="112" width="370" height="26" as="geometry"/>
                </mxCell>
                <mxCell id="94" style="edgeStyle=none;html=1;exitX=0.5;exitY=0;exitDx=0;exitDy=0;entryX=0.25;entryY=1;entryDx=0;entryDy=0;strokeWidth=1;fontSize=12;endArrow=block;endFill=0;" parent="1" source="8" target="40" edge="1">
                    <mxGeometry relative="1" as="geometry">
                        <Array as="points">
                            <mxPoint x="-50" y="280"/>
                            <mxPoint x="394" y="280"/>
                        </Array>
                    </mxGeometry>
                </mxCell>
                <mxCell id="8" value="SalesAssociate" style="swimlane;fontStyle=0;align=center;verticalAlign=top;childLayout=stackLayout;horizontal=1;startSize=26;horizontalStack=0;resizeParent=1;resizeLast=0;collapsible=1;marginBottom=0;rounded=0;shadow=0;strokeWidth=1;" parent="1" vertex="1">
                    <mxGeometry x="-300" y="370" width="500" height="240" as="geometry">
                        <mxRectangle x="130" y="380" width="160" height="26" as="alternateBounds"/>
                    </mxGeometry>
                </mxCell>
                <mxCell id="9" value="+ double salesRate" style="text;align=left;verticalAlign=top;spacingLeft=4;spacingRight=4;overflow=hidden;rotatable=0;points=[[0,0.5],[1,0.5]];portConstraint=eastwest;fontStyle=4" parent="8" vertex="1">
                    <mxGeometry y="26" width="500" height="26" as="geometry"/>
                </mxCell>
                <mxCell id="11" value="" style="line;html=1;strokeWidth=1;align=left;verticalAlign=middle;spacingTop=-1;spacingLeft=3;spacingRight=3;rotatable=0;labelPosition=right;points=[];portConstraint=eastwest;" parent="8" vertex="1">
                    <mxGeometry y="52" width="500" height="8" as="geometry"/>
                </mxCell>
                <mxCell id="13" value="&lt;p style=&quot;line-height: 180%;&quot;&gt;+ SalesAssociate(double salesRate, double numberOfHoursWorked, double hourlyRate,&lt;br&gt;&amp;nbsp; &amp;nbsp; &amp;nbsp; &amp;nbsp;String storeDetails, String associateName, double basePay)&lt;br&gt;+ double calculateCommission()&lt;br&gt;+ double calculatePay()&lt;br&gt;+ boolean checkPromotionEligibility()&lt;br&gt;+ double getSalesRate()&lt;br&gt;+ String toString()&lt;br&gt;&lt;/p&gt;" style="text;align=left;verticalAlign=top;spacingLeft=4;spacingRight=4;overflow=hidden;rotatable=0;points=[[0,0.5],[1,0.5]];portConstraint=eastwest;html=1;spacingTop=-8;" parent="8" vertex="1">
                    <mxGeometry y="60" width="500" height="170" as="geometry"/>
                </mxCell>
                <mxCell id="93" style="edgeStyle=none;html=1;exitX=0.5;exitY=0;exitDx=0;exitDy=0;entryX=0.5;entryY=1;entryDx=0;entryDy=0;strokeWidth=1;fontSize=12;endArrow=block;endFill=0;" parent="1" source="15" target="40" edge="1">
                    <mxGeometry relative="1" as="geometry"/>
                </mxCell>
                <mxCell id="15" value="Manager" style="swimlane;fontStyle=0;align=center;verticalAlign=top;childLayout=stackLayout;horizontal=1;startSize=26;horizontalStack=0;resizeParent=1;resizeLast=0;collapsible=1;marginBottom=0;rounded=0;shadow=0;strokeWidth=1;" parent="1" vertex="1">
                    <mxGeometry x="252.5" y="313" width="500" height="358" as="geometry">
                        <mxRectangle x="340" y="380" width="170" height="26" as="alternateBounds"/>
                    </mxGeometry>
                </mxCell>
                <mxCell id="16" value=" - double bonusRate&#10; - double salesDone&#10; - double totalStoreSales" style="text;align=left;verticalAlign=top;spacingLeft=4;spacingRight=4;overflow=hidden;rotatable=0;points=[[0,0.5],[1,0.5]];portConstraint=eastwest;" parent="15" vertex="1">
                    <mxGeometry y="26" width="500" height="54" as="geometry"/>
                </mxCell>
                <mxCell id="17" value="" style="line;html=1;strokeWidth=1;align=left;verticalAlign=middle;spacingTop=-1;spacingLeft=3;spacingRight=3;rotatable=0;labelPosition=right;points=[];portConstraint=eastwest;" parent="15" vertex="1">
                    <mxGeometry y="80" width="500" height="8" as="geometry"/>
                </mxCell>
                <mxCell id="92" value="&lt;div style=&quot;font-size: 12px; line-height: 180%;&quot;&gt;&amp;nbsp;+ Manager(double totalStoreSales, double salesDone, double numberOfHoursWorked,&lt;/div&gt;&lt;div style=&quot;font-size: 12px; line-height: 180%;&quot;&gt;&amp;nbsp; &amp;nbsp; &amp;nbsp; &amp;nbsp; double hourlyRate, String storeDetails, double basePay, String name)&lt;/div&gt;&lt;div style=&quot;font-size: 12px; line-height: 180%;&quot;&gt;&amp;nbsp;+ double calculatePay()&lt;/div&gt;&lt;div style=&quot;font-size: 12px; line-height: 180%;&quot;&gt;&amp;nbsp;+ boolean checkPromotionEligibility()&lt;/div&gt;&lt;div style=&quot;font-size: 12px; line-height: 180%;&quot;&gt;&amp;nbsp;+ double getBonusRate()&lt;/div&gt;&lt;div style=&quot;font-size: 12px; line-height: 180%;&quot;&gt;&amp;nbsp;+ double getSalesDone()&lt;/div&gt;&lt;div style=&quot;font-size: 12px; line-height: 180%;&quot;&gt;&amp;nbsp;+ double getTotalStoreSales()&lt;/div&gt;&lt;div style=&quot;font-size: 12px; line-height: 180%;&quot;&gt;&amp;nbsp;+ double salesPercentByManager()&lt;/div&gt;&lt;div style=&quot;font-size: 12px; line-height: 180%;&quot;&gt;&amp;nbsp;+ void setBonusRate(double bonusRate)&lt;/div&gt;&lt;div style=&quot;font-size: 12px; line-height: 180%;&quot;&gt;&amp;nbsp;+ void setSalesDone(double salesDone)&lt;/div&gt;&lt;div style=&quot;font-size: 12px; line-height: 180%;&quot;&gt;&amp;nbsp;+ void setTotalStoreSales(double totalStoreSales)&lt;/div&gt;&lt;div style=&quot;font-size: 12px; line-height: 180%;&quot;&gt;&amp;nbsp;+ String toString()&lt;/div&gt;" style="text;html=1;align=left;verticalAlign=middle;resizable=0;points=[];autosize=1;strokeColor=none;fillColor=none;fontSize=12;spacingTop=0;spacing=2;" parent="15" vertex="1">
                    <mxGeometry y="88" width="500" height="270" as="geometry"/>
                </mxCell>
                <mxCell id="95" style="edgeStyle=none;html=1;exitX=0.5;exitY=0;exitDx=0;exitDy=0;entryX=0.75;entryY=1;entryDx=0;entryDy=0;endArrow=block;endFill=0;" edge="1" parent="1" source="19" target="40">
                    <mxGeometry relative="1" as="geometry">
                        <Array as="points">
                            <mxPoint x="1025" y="280"/>
                            <mxPoint x="610" y="280"/>
                        </Array>
                    </mxGeometry>
                </mxCell>
                <mxCell id="19" value="Supplier" style="swimlane;fontStyle=0;align=center;verticalAlign=top;childLayout=stackLayout;horizontal=1;startSize=26;horizontalStack=0;resizeParent=1;resizeLast=0;collapsible=1;marginBottom=0;rounded=0;shadow=0;strokeWidth=1;" parent="1" vertex="1">
                    <mxGeometry x="840" y="334" width="370" height="306" as="geometry">
                        <mxRectangle x="550" y="140" width="160" height="26" as="alternateBounds"/>
                    </mxGeometry>
                </mxCell>
                <mxCell id="20" value="- int productSupplied&#10;- int lateDelivery" style="text;align=left;verticalAlign=top;spacingLeft=4;spacingRight=4;overflow=hidden;rotatable=0;points=[[0,0.5],[1,0.5]];portConstraint=eastwest;spacing=3;spacingTop=1;" parent="19" vertex="1">
                    <mxGeometry y="26" width="370" height="42" as="geometry"/>
                </mxCell>
                <mxCell id="25" value="" style="line;html=1;strokeWidth=1;align=left;verticalAlign=middle;spacingTop=-1;spacingLeft=3;spacingRight=3;rotatable=0;labelPosition=right;points=[];portConstraint=eastwest;" parent="19" vertex="1">
                    <mxGeometry y="68" width="370" height="8" as="geometry"/>
                </mxCell>
                <mxCell id="97" value="&lt;div style=&quot;font-size: 12px; line-height: 180%;&quot;&gt;+ Supplier(double numberOfHoursWorked, double hourlyRate,&lt;br style=&quot;padding: 0px; margin: 0px;&quot;&gt;&amp;nbsp;&amp;nbsp;&amp;nbsp;String storeDetails, double basePay, String employeeName)&lt;br style=&quot;padding: 0px; margin: 0px;&quot;&gt;+ double calculatePay()&lt;br style=&quot;padding: 0px; margin: 0px;&quot;&gt;+ boolean checkPromotionEligibility()&lt;br style=&quot;padding: 0px; margin: 0px;&quot;&gt;+ int getProductSupplied()&lt;br style=&quot;padding: 0px; margin: 0px;&quot;&gt;+ void setProductSupplied(int productSupplied)&lt;br style=&quot;padding: 0px; margin: 0px;&quot;&gt;+ int getLateDelivery()&lt;br style=&quot;padding: 0px; margin: 0px;&quot;&gt;+ void setLateDelivery(int lateDelivery)&lt;br style=&quot;padding: 0px; margin: 0px;&quot;&gt;+ double calculatePerfectionRate()&lt;br style=&quot;padding: 0px; margin: 0px;&quot;&gt;+ String toString()&lt;br&gt;&lt;/div&gt;" style="text;html=1;align=left;verticalAlign=middle;resizable=0;points=[];autosize=1;strokeColor=none;fillColor=none;fontSize=12;spacingTop=0;spacing=2;spacingLeft=4;" vertex="1" parent="19">
                    <mxGeometry y="76" width="370" height="230" as="geometry"/>
                </mxCell>
                <mxCell id="90" style="edgeStyle=none;html=1;exitX=0.5;exitY=1;exitDx=0;exitDy=0;entryX=0.75;entryY=0;entryDx=0;entryDy=0;strokeWidth=1;endArrow=diamond;endFill=0;" parent="1" source="32" target="40" edge="1">
                    <mxGeometry relative="1" as="geometry">
                        <Array as="points">
                            <mxPoint x="675" y="-420"/>
                            <mxPoint x="610" y="-420"/>
                        </Array>
                    </mxGeometry>
                </mxCell>
                <mxCell id="32" value="Employee" style="swimlane;fontStyle=2;align=center;verticalAlign=top;childLayout=stackLayout;horizontal=1;startSize=26;horizontalStack=0;resizeParent=1;resizeLast=0;collapsible=1;marginBottom=0;rounded=0;shadow=0;strokeWidth=1;" parent="1" vertex="1">
                    <mxGeometry x="570" y="-598" width="210" height="90" as="geometry">
                        <mxRectangle x="230" y="140" width="160" height="26" as="alternateBounds"/>
                    </mxGeometry>
                </mxCell>
                <mxCell id="36" value="" style="line;html=1;strokeWidth=1;align=left;verticalAlign=middle;spacingTop=-1;spacingLeft=3;spacingRight=3;rotatable=0;labelPosition=right;points=[];portConstraint=eastwest;" parent="32" vertex="1">
                    <mxGeometry y="26" width="210" height="8" as="geometry"/>
                </mxCell>
                <mxCell id="37" value="+ double checkPromosionEligibility()" style="text;align=left;verticalAlign=top;spacingLeft=4;spacingRight=4;overflow=hidden;rotatable=0;points=[[0,0.5],[1,0.5]];portConstraint=eastwest;fontStyle=2" parent="32" vertex="1">
                    <mxGeometry y="34" width="210" height="26" as="geometry"/>
                </mxCell>
                <mxCell id="38" value="+ double calculatePay()" style="text;align=left;verticalAlign=top;spacingLeft=4;spacingRight=4;overflow=hidden;rotatable=0;points=[[0,0.5],[1,0.5]];portConstraint=eastwest;fontStyle=2" parent="32" vertex="1">
                    <mxGeometry y="60" width="210" height="26" as="geometry"/>
                </mxCell>
                <mxCell id="40" value="AbstractStoreEmployee" style="swimlane;fontStyle=0;align=center;verticalAlign=top;childLayout=stackLayout;horizontal=1;startSize=26;horizontalStack=0;resizeParent=1;resizeLast=0;collapsible=1;marginBottom=0;rounded=0;shadow=0;strokeWidth=1;" parent="1" vertex="1">
                    <mxGeometry x="285" y="-380" width="435" height="580" as="geometry">
                        <mxRectangle x="550" y="140" width="160" height="26" as="alternateBounds"/>
                    </mxGeometry>
                </mxCell>
                <mxCell id="41" value="- double basePay" style="text;align=left;verticalAlign=top;spacingLeft=4;spacingRight=4;overflow=hidden;rotatable=0;points=[[0,0.5],[1,0.5]];portConstraint=eastwest;" parent="40" vertex="1">
                    <mxGeometry y="26" width="435" height="26" as="geometry"/>
                </mxCell>
                <mxCell id="42" value="- string employeeName" style="text;align=left;verticalAlign=top;spacingLeft=4;spacingRight=4;overflow=hidden;rotatable=0;points=[[0,0.5],[1,0.5]];portConstraint=eastwest;rounded=0;shadow=0;html=0;" parent="40" vertex="1">
                    <mxGeometry y="52" width="435" height="26" as="geometry"/>
                </mxCell>
                <mxCell id="43" value="- double hourlyRate" style="text;align=left;verticalAlign=top;spacingLeft=4;spacingRight=4;overflow=hidden;rotatable=0;points=[[0,0.5],[1,0.5]];portConstraint=eastwest;rounded=0;shadow=0;html=0;" parent="40" vertex="1">
                    <mxGeometry y="78" width="435" height="26" as="geometry"/>
                </mxCell>
                <mxCell id="44" value="- double numberOfHoursWorked" style="text;align=left;verticalAlign=top;spacingLeft=4;spacingRight=4;overflow=hidden;rotatable=0;points=[[0,0.5],[1,0.5]];portConstraint=eastwest;rounded=0;shadow=0;html=0;" parent="40" vertex="1">
                    <mxGeometry y="104" width="435" height="26" as="geometry"/>
                </mxCell>
                <mxCell id="45" value="- string storeDetails" style="text;align=left;verticalAlign=top;spacingLeft=4;spacingRight=4;overflow=hidden;rotatable=0;points=[[0,0.5],[1,0.5]];portConstraint=eastwest;rounded=0;shadow=0;html=0;" parent="40" vertex="1">
                    <mxGeometry y="130" width="435" height="26" as="geometry"/>
                </mxCell>
                <mxCell id="46" value="" style="line;html=1;strokeWidth=1;align=left;verticalAlign=middle;spacingTop=-1;spacingLeft=3;spacingRight=3;rotatable=0;labelPosition=right;points=[];portConstraint=eastwest;" parent="40" vertex="1">
                    <mxGeometry y="156" width="435" height="8" as="geometry"/>
                </mxCell>
                <mxCell id="73" value="+ AbstractStoreEmployee(double numberOfHoursWorked, double hourlyRate, &#10;   String storeDetails, double basePay, String employeeName)" style="text;align=left;verticalAlign=top;spacingLeft=4;spacingRight=4;overflow=hidden;rotatable=0;points=[[0,0.5],[1,0.5]];portConstraint=eastwest;" parent="40" vertex="1">
                    <mxGeometry y="164" width="435" height="46" as="geometry"/>
                </mxCell>
                <mxCell id="89" value="+ double getBasePay()" style="text;align=left;verticalAlign=top;spacingLeft=4;spacingRight=4;overflow=hidden;rotatable=0;points=[[0,0.5],[1,0.5]];portConstraint=eastwest;" parent="40" vertex="1">
                    <mxGeometry y="210" width="435" height="26" as="geometry"/>
                </mxCell>
                <mxCell id="88" value="+ void setStoreDetails(storeDetails : String)" style="text;align=left;verticalAlign=top;spacingLeft=4;spacingRight=4;overflow=hidden;rotatable=0;points=[[0,0.5],[1,0.5]];portConstraint=eastwest;" parent="40" vertex="1">
                    <mxGeometry y="236" width="435" height="26" as="geometry"/>
                </mxCell>
                <mxCell id="87" value="+ void setEmployeeName(employeeName : String)" style="text;align=left;verticalAlign=top;spacingLeft=4;spacingRight=4;overflow=hidden;rotatable=0;points=[[0,0.5],[1,0.5]];portConstraint=eastwest;" parent="40" vertex="1">
                    <mxGeometry y="262" width="435" height="26" as="geometry"/>
                </mxCell>
                <mxCell id="86" value="+ void setBasePay(basePay : double)" style="text;align=left;verticalAlign=top;spacingLeft=4;spacingRight=4;overflow=hidden;rotatable=0;points=[[0,0.5],[1,0.5]];portConstraint=eastwest;" parent="40" vertex="1">
                    <mxGeometry y="288" width="435" height="26" as="geometry"/>
                </mxCell>
                <mxCell id="85" value="+ void sethourlyRate(hourlyRate : double)" style="text;align=left;verticalAlign=top;spacingLeft=4;spacingRight=4;overflow=hidden;rotatable=0;points=[[0,0.5],[1,0.5]];portConstraint=eastwest;" parent="40" vertex="1">
                    <mxGeometry y="314" width="435" height="26" as="geometry"/>
                </mxCell>
                <mxCell id="84" value="+ double getHourlyRate()" style="text;align=left;verticalAlign=top;spacingLeft=4;spacingRight=4;overflow=hidden;rotatable=0;points=[[0,0.5],[1,0.5]];portConstraint=eastwest;" parent="40" vertex="1">
                    <mxGeometry y="340" width="435" height="26" as="geometry"/>
                </mxCell>
                <mxCell id="83" value="+ double getNumberOfHourseWorked()" style="text;align=left;verticalAlign=top;spacingLeft=4;spacingRight=4;overflow=hidden;rotatable=0;points=[[0,0.5],[1,0.5]];portConstraint=eastwest;" parent="40" vertex="1">
                    <mxGeometry y="366" width="435" height="26" as="geometry"/>
                </mxCell>
                <mxCell id="82" value="+ void setNumberOfHourseWorked(numberofHoursWorked : double)" style="text;align=left;verticalAlign=top;spacingLeft=4;spacingRight=4;overflow=hidden;rotatable=0;points=[[0,0.5],[1,0.5]];portConstraint=eastwest;" parent="40" vertex="1">
                    <mxGeometry y="392" width="435" height="26" as="geometry"/>
                </mxCell>
                <mxCell id="81" value="+ String getEmployeeName()" style="text;align=left;verticalAlign=top;spacingLeft=4;spacingRight=4;overflow=hidden;rotatable=0;points=[[0,0.5],[1,0.5]];portConstraint=eastwest;" parent="40" vertex="1">
                    <mxGeometry y="418" width="435" height="26" as="geometry"/>
                </mxCell>
                <mxCell id="80" value="+ double calculatePay()" style="text;align=left;verticalAlign=top;spacingLeft=4;spacingRight=4;overflow=hidden;rotatable=0;points=[[0,0.5],[1,0.5]];portConstraint=eastwest;" parent="40" vertex="1">
                    <mxGeometry y="444" width="435" height="26" as="geometry"/>
                </mxCell>
                <mxCell id="79" value="+ double calculateComission()" style="text;align=left;verticalAlign=top;spacingLeft=4;spacingRight=4;overflow=hidden;rotatable=0;points=[[0,0.5],[1,0.5]];portConstraint=eastwest;" parent="40" vertex="1">
                    <mxGeometry y="470" width="435" height="26" as="geometry"/>
                </mxCell>
                <mxCell id="78" value="+ double calculateRemainingStoreRevenue(storeSales : double)" style="text;align=left;verticalAlign=top;spacingLeft=4;spacingRight=4;overflow=hidden;rotatable=0;points=[[0,0.5],[1,0.5]];portConstraint=eastwest;" parent="40" vertex="1">
                    <mxGeometry y="496" width="435" height="26" as="geometry"/>
                </mxCell>
                <mxCell id="77" value="+ boolean checkPromotionEligibility() " style="text;align=left;verticalAlign=top;spacingLeft=4;spacingRight=4;overflow=hidden;rotatable=0;points=[[0,0.5],[1,0.5]];portConstraint=eastwest;" parent="40" vertex="1">
                    <mxGeometry y="522" width="435" height="26" as="geometry"/>
                </mxCell>
                <mxCell id="76" value="+ String toString()" style="text;align=left;verticalAlign=top;spacingLeft=4;spacingRight=4;overflow=hidden;rotatable=0;points=[[0,0.5],[1,0.5]];portConstraint=eastwest;" parent="40" vertex="1">
                    <mxGeometry y="548" width="435" height="26" as="geometry"/>
                </mxCell>
            </root>
        </mxGraphModel>
    </diagram>
</mxfile>